<?xml version="1.0" encoding="utf-8"?>
<!-- Generator: Adobe Illustrator 26.1.0, SVG Export Plug-In . SVG Version: 6.00 Build 0)  -->
<svg version="1.1" id="Слой_1" xmlns="http://www.w3.org/2000/svg" xmlns:xlink="http://www.w3.org/1999/xlink" x="0px" y="0px"
	 viewBox="0 0 1000 1000" enable-background="new 0 0 1000 1000" xml:space="preserve">
<g>
	<path fill="none" stroke="#000000" stroke-width="40" stroke-miterlimit="10" d="M999.5,129.5"/>
</g>
<g>
	<path fill="none" stroke="#000000" stroke-width="40" stroke-miterlimit="10" d="M-0.5,129.5"/>
</g>
<path d="M955,90H45C20.1,90,0,69.9,0,45v0C0,20.1,20.1,0,45,0l910,0c24.9,0,45,20.1,45,45v0C1000,69.9,979.9,90,955,90z"/>
<path d="M955,590H45c-24.9,0-45-20.1-45-45v0c0-24.9,20.1-45,45-45h910c24.9,0,45,20.1,45,45v0C1000,569.9,979.9,590,955,590z"/>
<path d="M955,1000H45c-24.9,0-45-20.1-45-45v0c0-24.9,20.1-45,45-45h910c24.9,0,45,20.1,45,45v0C1000,979.9,979.9,1000,955,1000z"/>
</svg>
