<?xml version="1.0" encoding="utf-8"?>
<!-- Generator: Adobe Illustrator 26.1.0, SVG Export Plug-In . SVG Version: 6.00 Build 0)  -->
<svg version="1.1" xmlns="http://www.w3.org/2000/svg" xmlns:xlink="http://www.w3.org/1999/xlink" x="0px" y="0px"
	 viewBox="0 0 1100 555.6" enable-background="new 0 0 1100 555.6" xml:space="preserve">
<g id="Layer_2">
</g>
<g id="Layer_1">
	<path id="XMLID_8608_" fill="#741CFF" d="M722.1,43.5c-0.8-7-7.3-12-14.3-11.1c-2.4,0.3-4.6,1.2-6.4,2.6c-2.1-1.6-4.9-2.4-7.8-2.1
		c-3.5,0.4-6.4,2.5-8.1,5.3c-2.1-3.6-6.2-5.7-10.6-5.2c-5.3,0.6-9.3,5-9.5,10.2c-1.9-2.4-5-3.9-8.4-3.5c-1.9,0.2-3.7,1-5,2.2
		c-2.4-3.4-6.6-5.4-11.1-4.9c-5.3,0.6-9.3,4.6-10.2,9.5c-2.5-2-5.8-3-9.3-2.6c-2.7,0.3-5.2,1.5-7,3.3c-3.1-3.2-7.7-4.9-12.5-4.3
		c-8.2,1-14.1,8.4-13.1,16.5c0.4,3.3,1.2,6.7,4.9,9.6c0,0.1-1-0.5-5.8,0.1c-7.4,0.9-12.7,7.5-11.8,14.9c0.9,7.3,7.6,12.6,15,11.7
		c7.4-0.9,12.7-7.5,11.8-14.9c0-0.2-0.1-0.5-0.1-0.7c2.5,1.9,5.7,2.9,9.1,2.5c5.1-0.6,9.1-4.2,10.5-8.8c1.8,3.2,5.3,5.2,9.2,4.7
		c2.8-0.3,5.2-1.9,6.6-4.1c2.4,5.6,8.4,9.2,14.8,8.4c6.9-0.8,12-6.4,12.5-13c1.8,3.1,5.3,5.1,9.2,4.6c2.3-0.3,4.3-1.4,5.7-2.9
		c2.2,2,5.3,3.2,8.6,2.8c4.3-0.5,7.7-3.5,9-7.3c1.8,0.9,4,1.4,6.2,1.1c5.6-0.7,9.7-5.5,9.5-11C719.2,55,722.8,49.5,722.1,43.5z"/>
	<path id="XMLID_8607_" fill="#741CFF" d="M200,86.4c-5.8,0.5-10.6,4.2-12.5,9.3c-2.3-1.5-5-2.3-8-2.1c-6.5,0.5-11.4,5.8-11.6,12.1
		c-1-0.3-2-0.4-3.1-0.3c-4.8,0.4-8.5,4.6-8.1,9.4c0.4,4.8,4.6,8.4,9.4,8c3.7-0.3,6.7-2.8,7.7-6.1c2.2,1.3,4.8,2.1,7.6,1.8
		c4.5-0.3,8.2-3,10.2-6.7c2.8,2.4,6.6,3.7,10.6,3.4c8-0.6,14-7.6,13.4-15.5C215.1,91.7,208,85.7,200,86.4z"/>
	<path id="XMLID_8606_" fill="#741CFF" d="M137.9,86.4c-5.8,0.5-10.6,4.2-12.5,9.3c-2.3-1.5-5-2.3-8-2.1
		c-6.5,0.5-11.4,5.8-11.6,12.1c-1-0.3-2-0.4-3.1-0.3c-4.8,0.4-8.5,4.6-8.1,9.4c0.4,4.8,4.6,8.4,9.4,8c3.7-0.3,6.7-2.8,7.7-6.1
		c2.2,1.3,4.8,2.1,7.6,1.8c4.5-0.3,8.2-3,10.2-6.7c2.8,2.4,6.6,3.7,10.6,3.4c8-0.6,14-7.6,13.4-15.5
		C152.9,91.7,145.9,85.7,137.9,86.4z"/>
	<path id="XMLID_8605_" fill="#741CFF" d="M75.7,86.4c-5.8,0.5-10.6,4.2-12.5,9.3c-2.3-1.5-5-2.3-8-2.1c-6.5,0.5-11.4,5.8-11.6,12.1
		c-1-0.3-2-0.4-3.1-0.3c-4.8,0.4-8.5,4.6-8.1,9.4c0.4,4.8,4.6,8.4,9.4,8c3.7-0.3,6.7-2.8,7.7-6.1c2.2,1.3,4.8,2.1,7.6,1.8
		c4.5-0.3,8.2-3,10.2-6.7c2.8,2.4,6.6,3.7,10.6,3.4c8-0.6,14-7.6,13.4-15.5C90.8,91.7,83.8,85.7,75.7,86.4z"/>
	<polygon id="XMLID_8604_" fill="#741CFF" points="609.9,200.2 551.1,200.2 550.4,229.4 610.3,229.4 	"/>
	<polygon id="XMLID_8603_" fill="#741CFF" points="60.9,220.9 27.2,220.9 27.5,199.7 60.6,199.7 	"/>
	<polygon id="XMLID_8602_" fill="#741CFF" points="120.3,220.9 86.6,220.9 87,199.7 120,199.7 	"/>
	<polygon id="XMLID_8601_" fill="#741CFF" points="179.7,220.9 146.1,220.9 146.4,199.7 179.4,199.7 	"/>
	<path id="XMLID_8600_" fill="#741CFF" d="M1036.2,448.5h11.5c7,0,12.8-5.8,12.8-12.8v-111c0-7-5.8-12.8-12.8-12.8h-11.5
		c-7,0-12.8,5.8-12.8,12.8v111C1023.4,442.7,1029.2,448.5,1036.2,448.5z"/>
	<path id="XMLID_8599_" fill="#741CFF" d="M948.9,412.6v-84.5c0-10.1-8.4-18.4-18.6-18.4h0c-10.2,0-18.6,8.3-18.6,18.4v84.5H948.9z"
		/>
	<rect id="XMLID_8598_" x="381.1" y="361.6" fill="#741CFF" width="115.6" height="50.5"/>
	<g id="XMLID_8574_">
		<path id="XMLID_8575_" d="M357.8,516.3H207.5c-1.5,0-2.7-1.2-2.7-2.6V255.2c0-1,0.6-1.9,1.5-2.4l150.2-71.3
			c0.8-0.4,1.8-0.3,2.6,0.1c0.8,0.5,1.2,1.3,1.2,2.2v329.7C360.4,515.1,359.3,516.3,357.8,516.3z M210.2,511h144.9V188.1
			l-144.9,68.7V511z"/>
	</g>
	<g id="XMLID_8570_">
		<path id="XMLID_8571_" d="M508,516.3H357.8c-1.5,0-2.7-1.2-2.7-2.6V255.2c0-1,0.6-1.9,1.5-2.4l150.2-71.3c0.8-0.4,1.8-0.3,2.6,0.1
			c0.8,0.5,1.2,1.3,1.2,2.2v329.7C510.7,515.1,509.5,516.3,508,516.3z M360.4,511h144.9V188.1l-144.9,68.7V511z"/>
	</g>
	<g id="XMLID_8566_">
		<path id="XMLID_8567_" d="M198,516.4H2.7c-1.5,0-2.7-1.2-2.7-2.6V409.6c0-1.5,1.2-2.6,2.7-2.6H198c1.5,0,2.7,1.2,2.7,2.6v104.1
			C200.7,515.2,199.5,516.4,198,516.4z M5.3,511.1h190v-98.9H5.3V511.1z"/>
	</g>
	<g id="XMLID_8562_">
		<path id="XMLID_8563_" d="M60,412.2H20.5c-0.7,0-1.4-0.3-1.9-0.8c-0.5-0.5-0.8-1.2-0.8-1.9L22,132.8c0-1.4,1.2-2.6,2.7-2.6h31.1
			c1.5,0,2.6,1.2,2.7,2.6l4.2,276.8c0,0.7-0.3,1.4-0.8,1.9C61.4,411.9,60.7,412.2,60,412.2z M23.2,407h34.1l-4.1-271.5H27.3
			L23.2,407z"/>
	</g>
	<g id="XMLID_8558_">
		<path id="XMLID_8559_" d="M57.1,219.8H23.4c-0.7,0-1.4-0.3-1.9-0.8c-0.5-0.5-0.8-1.2-0.8-1.9l0.3-21.2c0-1.4,1.2-2.6,2.7-2.6h33
			c1.5,0,2.6,1.2,2.7,2.6l0.3,21.2c0,0.7-0.3,1.4-0.8,1.9C58.5,219.5,57.8,219.8,57.1,219.8z M26.1,214.5h28.3l-0.2-15.9H26.3
			L26.1,214.5z"/>
	</g>
	<g id="XMLID_8554_">
		<path id="XMLID_8555_" d="M119.4,412.2H79.9c-0.7,0-1.4-0.3-1.9-0.8c-0.5-0.5-0.8-1.2-0.8-1.9l4.2-276.8c0-1.4,1.2-2.6,2.7-2.6
			h31.1c1.5,0,2.6,1.2,2.7,2.6l4.2,276.8c0,0.7-0.3,1.4-0.8,1.9C120.8,411.9,120.1,412.2,119.4,412.2z M82.6,407h34.1l-4.1-271.5
			H86.7L82.6,407z"/>
	</g>
	<g id="XMLID_8550_">
		<path id="XMLID_8551_" d="M116.5,219.8H82.8c-0.7,0-1.4-0.3-1.9-0.8c-0.5-0.5-0.8-1.2-0.8-1.9l0.3-21.2c0-1.4,1.2-2.6,2.7-2.6h33
			c1.5,0,2.6,1.2,2.7,2.6l0.3,21.2c0,0.7-0.3,1.4-0.8,1.9C117.9,219.5,117.2,219.8,116.5,219.8z M85.5,214.5h28.3l-0.2-15.9H85.8
			L85.5,214.5z"/>
	</g>
	<g id="XMLID_8546_">
		<path id="XMLID_8547_" d="M178.8,412.2h-39.5c-0.7,0-1.4-0.3-1.9-0.8c-0.5-0.5-0.8-1.2-0.8-1.9l4.2-276.8c0-1.4,1.2-2.6,2.7-2.6
			h31.1c1.5,0,2.6,1.2,2.7,2.6l4.2,276.8c0,0.7-0.3,1.4-0.8,1.9C180.2,411.9,179.5,412.2,178.8,412.2z M142,407h34.1L172,135.5
			h-25.9L142,407z"/>
	</g>
	<g id="XMLID_8542_">
		<path id="XMLID_8543_" d="M175.9,219.8h-33.7c-0.7,0-1.4-0.3-1.9-0.8c-0.5-0.5-0.8-1.2-0.8-1.9l0.3-21.2c0-1.4,1.2-2.6,2.7-2.6h33
			c1.5,0,2.6,1.2,2.7,2.6l0.3,21.2c0,0.7-0.3,1.4-0.8,1.9C177.3,219.5,176.6,219.8,175.9,219.8z M144.9,214.5h28.3l-0.2-15.9h-27.8
			L144.9,214.5z"/>
	</g>
	<g id="XMLID_8538_">
		<path id="XMLID_8539_" d="M605.1,227.2h-59.9c-0.7,0-1.4-0.3-1.9-0.8c-0.5-0.5-0.8-1.2-0.8-1.9l0.7-29.2c0-1.4,1.2-2.6,2.7-2.6
			h58.8c1.5,0,2.6,1.2,2.7,2.6l0.4,29.2c0,0.7-0.3,1.4-0.8,1.9C606.5,227,605.8,227.2,605.1,227.2z M548,222h54.5l-0.3-23.9h-53.6
			L548,222z"/>
	</g>
	<g id="XMLID_8536_">
		<path id="XMLID_8537_" d="M216.1,282.1c-1,0-1.9-0.6-2.4-1.5c-0.6-1.3-0.1-2.9,1.3-3.5l133.4-63.3c1.3-0.6,2.9-0.1,3.6,1.2
			c0.6,1.3,0.1,2.9-1.3,3.5l-133.4,63.3C216.9,282,216.5,282.1,216.1,282.1z"/>
	</g>
	<g id="XMLID_8534_">
		<path id="XMLID_8535_" d="M366.4,282c-1,0-1.9-0.6-2.4-1.5c-0.6-1.3-0.1-2.9,1.3-3.5l133.4-63.3c1.3-0.6,2.9-0.1,3.6,1.2
			c0.6,1.3,0.1,2.9-1.3,3.5l-133.4,63.3C367.1,282,366.8,282,366.4,282z"/>
	</g>
	<g id="XMLID_8530_">
		<path id="XMLID_8531_" d="M57.1,442.8H20.5c-1.5,0-2.7-1.2-2.7-2.6v-12.5c0-1.5,1.2-2.6,2.7-2.6h36.6c1.5,0,2.7,1.2,2.7,2.6v12.5
			C59.7,441.6,58.5,442.8,57.1,442.8z M23.1,437.5h31.3v-7.3H23.1V437.5z"/>
	</g>
	<g id="XMLID_8526_">
		<path id="XMLID_8527_" d="M117.9,442.8H81.3c-1.5,0-2.7-1.2-2.7-2.6v-12.5c0-1.5,1.2-2.6,2.7-2.6h36.6c1.5,0,2.7,1.2,2.7,2.6v12.5
			C120.6,441.6,119.4,442.8,117.9,442.8z M84,437.5h31.3v-7.3H84V437.5z"/>
	</g>
	<g id="XMLID_8522_">
		<path id="XMLID_8523_" d="M178.8,442.8h-36.6c-1.5,0-2.7-1.2-2.7-2.6v-12.5c0-1.5,1.2-2.6,2.7-2.6h36.6c1.5,0,2.7,1.2,2.7,2.6
			v12.5C181.5,441.6,180.3,442.8,178.8,442.8z M144.9,437.5h31.3v-7.3h-31.3V437.5z"/>
	</g>
	<g id="XMLID_8518_">
		<path id="XMLID_8519_" d="M1035.8,450.1h-1.5c-11.3,0-20.5-9.1-20.5-20.3V328.4c0-11.2,9.2-20.3,20.5-20.3h1.5
			c11.3,0,20.5,9.1,20.5,20.3v101.3C1056.3,441,1047.1,450.1,1035.8,450.1z M1034.4,313.4c-8.4,0-15.2,6.7-15.2,15v101.3
			c0,8.3,6.8,15,15.2,15h1.5c8.4,0,15.2-6.7,15.2-15V328.4c0-8.3-6.8-15-15.2-15H1034.4z"/>
	</g>
	<g id="XMLID_8516_">
		<path id="XMLID_8517_" d="M942,415.2c-1.5,0-2.7-1.2-2.7-2.6v-85c0-7.8-6.4-14.2-14.4-14.2h-3.1c-7.9,0-14.4,6.4-14.4,14.2v85
			c0,1.5-1.2,2.6-2.7,2.6s-2.7-1.2-2.7-2.6v-85c0-10.7,8.8-19.5,19.7-19.5h3.1c10.9,0,19.7,8.7,19.7,19.5v85
			C944.6,414.1,943.4,415.2,942,415.2z"/>
	</g>
	<g id="XMLID_8512_">
		<path id="XMLID_8513_" d="M1042,312.7h-14c-1.1,0-1.9-0.8-1.9-1.9v-5.9c0-1,0.9-1.9,1.9-1.9h14c1.1,0,1.9,0.8,1.9,1.9v5.9
			C1043.9,311.8,1043,312.7,1042,312.7z M1029.9,308.9h10.2v-2.1h-10.2V308.9z"/>
	</g>
	<g id="XMLID_8508_">
		<path id="XMLID_8509_" d="M930.4,312.7h-14c-1.1,0-1.9-0.8-1.9-1.9v-5.9c0-1,0.9-1.9,1.9-1.9h14c1.1,0,1.9,0.8,1.9,1.9v5.9
			C932.3,311.8,931.4,312.7,930.4,312.7z M918.3,308.9h10.2v-2.1h-10.2V308.9z"/>
	</g>
	<g id="XMLID_8506_">
		<path id="XMLID_8507_" d="M1016.5,340.9h-34.4c-3.3,0-5.9-2.6-5.9-5.8v-58c0-4-3.3-7.3-7.4-7.3h-39c-4.3,0-7.8,3.4-7.8,7.7v26.1
			c0,1-0.9,1.9-1.9,1.9c-1.1,0-1.9-0.8-1.9-1.9v-26.1c0-6.3,5.2-11.4,11.6-11.4h39c6.2,0,11.2,5,11.2,11.1v58c0,1.1,0.9,2.1,2.1,2.1
			h34.4c1.1,0,1.9,0.8,1.9,1.9C1018.4,340.1,1017.6,340.9,1016.5,340.9z"/>
	</g>
	<g id="XMLID_8504_">
		<path id="XMLID_8505_" d="M1016.5,347.6h-35.3c-6.5,0-11.7-5.2-11.7-11.6v-58.1c0-0.8-0.7-1.5-1.5-1.5h-38c-0.8,0-1.4,0.6-1.4,1.4
			v27.2c0,1-0.9,1.9-1.9,1.9c-1.1,0-1.9-0.8-1.9-1.9v-27.2c0-2.8,2.3-5.1,5.2-5.1h38c2.9,0,5.3,2.4,5.3,5.3V336
			c0,4.3,3.6,7.8,7.9,7.8h35.3c1.1,0,1.9,0.8,1.9,1.9S1017.6,347.6,1016.5,347.6z"/>
	</g>
	<g id="XMLID_8502_">
		<path id="XMLID_8503_" d="M1016.5,365.4h-52c-2.6,0-4.8-2.1-4.8-4.7v-23.1c0-3.6-3-6.6-6.6-6.6H942c-1.1,0-1.9-0.8-1.9-1.9
			c0-1,0.9-1.9,1.9-1.9h11.2c5.8,0,10.4,4.6,10.4,10.3v23.1c0,0.5,0.4,1,1,1h52c1.1,0,1.9,0.8,1.9,1.9S1017.6,365.4,1016.5,365.4z"
			/>
	</g>
	<g id="XMLID_8500_">
		<path id="XMLID_8501_" d="M1016.5,371.6h-52.4c-6,0-10.9-4.9-10.9-10.8v-23.5c0,0,0-0.1-0.1-0.1H942c-1.1,0-1.9-0.8-1.9-1.9
			s0.9-1.9,1.9-1.9h11.2c2.1,0,3.9,1.7,3.9,3.8v23.5c0,3.9,3.2,7.1,7.1,7.1h52.4c1.1,0,1.9,0.8,1.9,1.9S1017.6,371.6,1016.5,371.6z"
			/>
	</g>
	<g id="XMLID_8498_">
		<path id="XMLID_8499_" d="M1081.7,447c-1.1,0-1.9-0.8-1.9-1.9v-88.3c0-3.3-2.7-5.9-6-5.9h-20.1c-1.1,0-1.9-0.8-1.9-1.9
			c0-1,0.9-1.9,1.9-1.9h20.1c5.4,0,9.8,4.3,9.8,9.7v88.3C1083.6,446.2,1082.7,447,1081.7,447z"/>
	</g>
	<g id="XMLID_8496_">
		<path id="XMLID_8497_" d="M1075.6,447c-1.1,0-1.9-0.8-1.9-1.9v-87.8c0-0.2-0.2-0.4-0.4-0.4h-19.7c-1.1,0-1.9-0.8-1.9-1.9
			s0.9-1.9,1.9-1.9h19.7c2.3,0,4.2,1.9,4.2,4.1v87.8C1077.5,446.2,1076.7,447,1075.6,447z"/>
	</g>
	<g id="XMLID_8492_">
		<path id="XMLID_8493_" d="M1097.3,516H881.7c-1.5,0-2.7-1.2-2.7-2.6V412.6c0-1.5,1.2-2.6,2.7-2.6h106.4c1.5,0,2.7,1.2,2.7,2.6
			v32.2h106.6c1.5,0,2.7,1.2,2.7,2.6v65.9C1100,514.8,1098.8,516,1097.3,516z M884.3,510.7h210.3V450H988.1c-1.5,0-2.7-1.2-2.7-2.6
			v-32.2h-101V510.7z"/>
	</g>
	<g id="XMLID_8488_">
		<path id="XMLID_8489_" d="M164,121.1c-2.7,0-5.3-1-7.4-2.7c-2.3-2-3.7-4.7-4-7.7c-0.2-3,0.7-5.9,2.7-8.3c2-2.3,4.8-3.7,7.8-3.9
			c0.3,0,0.7,0,1,0c1.4-6.4,6.9-11.2,13.7-11.7c2.4-0.2,4.8,0.2,7,1.1c2.8-4.7,7.9-7.9,13.5-8.3l0,0c9.5-0.7,17.8,6.3,18.5,15.7
			c0.4,4.5-1.1,9-4.1,12.4c-3,3.5-7.2,5.6-11.8,5.9c-3.6,0.3-7.1-0.5-10.1-2.3c-2.6,3.2-6.4,5.3-10.7,5.6c-2.2,0.2-4.5-0.1-6.5-0.9
			c-1.9,3-5.1,4.9-8.8,5.2C164.6,121.1,164.3,121.1,164,121.1z M164,103.7c-0.2,0-0.3,0-0.5,0c-1.6,0.1-3.1,0.9-4.2,2.1
			c-1.1,1.2-1.6,2.8-1.5,4.4c0.1,1.6,0.9,3.1,2.1,4.1c1.2,1.1,2.8,1.6,4.5,1.4c2.5-0.2,4.6-1.9,5.4-4.3c0.2-0.8,0.8-1.4,1.6-1.7
			c0.8-0.3,1.6-0.2,2.3,0.2c1.8,1.1,3.9,1.6,6,1.5c3.4-0.3,6.4-2.2,8-5.3c0.4-0.7,1.1-1.2,1.9-1.4c0.8-0.2,1.6,0.1,2.2,0.6
			c2.4,2,5.5,3,8.7,2.8c3.2-0.2,6.1-1.7,8.1-4.1c2.1-2.4,3.1-5.4,2.8-8.6c-0.2-3.1-1.7-6-4.1-8.1c-2.4-2-5.5-3-8.7-2.8l0,0
			c-4.6,0.4-8.6,3.3-10.2,7.6c-0.3,0.8-0.9,1.3-1.7,1.6c-0.8,0.2-1.6,0.1-2.3-0.3c-1.9-1.2-4-1.8-6.3-1.6c-5.1,0.4-9,4.5-9.1,9.5
			c0,0.8-0.4,1.6-1.1,2.1c-0.7,0.5-1.5,0.6-2.3,0.4C165.1,103.8,164.5,103.7,164,103.7z"/>
	</g>
	<g id="XMLID_8484_">
		<path id="XMLID_8485_" d="M101.8,121.1c-2.7,0-5.3-1-7.4-2.7c-2.3-2-3.7-4.7-4-7.7c-0.2-3,0.7-5.9,2.7-8.3c2-2.3,4.8-3.7,7.8-3.9
			c0.3,0,0.7,0,1,0c1.4-6.4,6.9-11.2,13.7-11.7c2.4-0.2,4.8,0.2,7,1.1c2.8-4.7,7.9-7.9,13.5-8.3l0,0c9.5-0.7,17.8,6.3,18.5,15.7
			c0.4,4.5-1.1,9-4.1,12.4c-3,3.5-7.2,5.6-11.8,5.9c-3.6,0.3-7.1-0.5-10.1-2.3c-2.6,3.2-6.4,5.3-10.7,5.6c-2.2,0.2-4.5-0.1-6.5-0.9
			c-1.9,3-5.1,4.9-8.8,5.2C102.4,121.1,102.1,121.1,101.8,121.1z M101.8,103.7c-0.2,0-0.3,0-0.5,0c-1.6,0.1-3.1,0.9-4.2,2.1
			c-1.1,1.2-1.6,2.8-1.5,4.4c0.1,1.6,0.9,3.1,2.1,4.1c1.2,1.1,2.8,1.6,4.5,1.4c2.5-0.2,4.6-1.9,5.4-4.3c0.2-0.8,0.8-1.4,1.6-1.7
			c0.8-0.3,1.6-0.2,2.3,0.2c1.8,1.1,3.9,1.6,6,1.5c3.4-0.3,6.4-2.2,8-5.3c0.4-0.7,1.1-1.2,1.9-1.4c0.8-0.2,1.6,0.1,2.2,0.6
			c2.4,2,5.5,3,8.7,2.8c3.2-0.2,6.1-1.7,8.1-4.1c2.1-2.4,3.1-5.4,2.8-8.6c-0.5-6.5-6.3-11.4-12.8-10.8l0,0
			c-4.6,0.4-8.6,3.3-10.2,7.6c-0.3,0.8-0.9,1.3-1.7,1.6c-0.8,0.2-1.6,0.1-2.3-0.3c-1.9-1.2-4-1.8-6.3-1.6c-5.1,0.4-9,4.5-9.1,9.5
			c0,0.8-0.4,1.6-1.1,2.1c-0.7,0.5-1.5,0.6-2.3,0.4C103,103.8,102.4,103.7,101.8,103.7z"/>
	</g>
	<g id="XMLID_8480_">
		<path id="XMLID_8481_" d="M39.7,121.1c-2.7,0-5.3-1-7.4-2.7c-2.3-2-3.7-4.7-4-7.7c-0.2-3,0.7-5.9,2.7-8.3c2-2.3,4.8-3.7,7.8-3.9
			c0.3,0,0.7,0,1,0c1.4-6.4,6.9-11.2,13.7-11.7c2.4-0.2,4.8,0.2,7,1.1c2.8-4.7,7.9-7.9,13.5-8.3l0,0c9.5-0.7,17.8,6.3,18.5,15.7
			c0.4,4.5-1.1,9-4.1,12.4c-3,3.5-7.2,5.6-11.8,5.9c-3.6,0.3-7.1-0.5-10.1-2.3c-2.6,3.2-6.4,5.3-10.7,5.6c-2.2,0.2-4.5-0.1-6.5-0.9
			c-1.9,3-5.1,4.9-8.8,5.2C40.3,121.1,40,121.1,39.7,121.1z M39.7,103.7c-0.2,0-0.3,0-0.5,0c-1.6,0.1-3.1,0.9-4.2,2.1
			c-1.1,1.2-1.6,2.8-1.5,4.4c0.1,1.6,0.9,3.1,2.1,4.1c1.2,1.1,2.8,1.6,4.5,1.4c2.5-0.2,4.6-1.9,5.4-4.3c0.2-0.8,0.8-1.4,1.6-1.7
			c0.8-0.3,1.6-0.2,2.3,0.2c1.8,1.1,3.9,1.6,6,1.5c3.4-0.3,6.4-2.2,8-5.3c0.4-0.7,1.1-1.2,1.9-1.4c0.8-0.2,1.6,0.1,2.2,0.6
			c2.4,2,5.5,3,8.7,2.8c3.2-0.2,6.1-1.7,8.1-4.1c2.1-2.4,3.1-5.4,2.8-8.6c-0.5-6.5-6.3-11.4-12.8-10.8l0,0
			c-4.6,0.4-8.6,3.3-10.2,7.6c-0.3,0.8-0.9,1.3-1.7,1.6c-0.8,0.2-1.6,0.1-2.3-0.3c-1.9-1.2-4-1.8-6.3-1.6c-5.1,0.4-9,4.5-9.1,9.5
			c0,0.8-0.4,1.6-1.1,2.1c-0.7,0.5-1.5,0.6-2.3,0.4C40.8,103.8,40.2,103.7,39.7,103.7z"/>
	</g>
	<g id="XMLID_8476_">
		<path id="XMLID_8477_" d="M585.3,94.8c-3.6,0-7.1-1.2-10-3.4c-3.4-2.6-5.5-6.4-6.1-10.7c-0.5-4.2,0.7-8.4,3.3-11.8
			c2.7-3.4,6.5-5.5,10.8-6c0.2,0,0.3,0,0.5-0.1c-1.2-2.2-1.6-4.5-1.9-6.7c-1.2-9.6,5.8-18.3,15.4-19.4c4.6-0.6,9.2,0.7,12.9,3.5
			c2-1.3,4.2-2.2,6.6-2.4c2.8-0.3,5.6,0.1,8.1,1.2c2.1-4.4,6.3-7.5,11.4-8.1c4.4-0.5,8.8,1,11.9,4c1.3-0.7,2.7-1.2,4.3-1.3
			c2.5-0.3,5,0.2,7.1,1.3c1.8-4.3,5.8-7.4,10.8-8c4.1-0.5,8,0.9,10.9,3.6c2.1-2,4.8-3.3,7.8-3.7c2.8-0.3,5.6,0.2,8.1,1.6
			c1.9-1.1,3.9-1.8,6.1-2.1c8.5-1,16.3,5,17.3,13.4v0c0.8,6.6-2.6,12.7-8.5,15.6c-0.6,6.1-5.5,11.1-11.8,11.9
			c-1.7,0.2-3.5,0.1-5.1-0.4c-2.1,3.6-5.8,6.1-10,6.6c-3.1,0.4-6.2-0.3-8.8-2c-1.6,1.2-3.5,1.9-5.5,2.1c-2.9,0.3-5.7-0.4-8-1.9
			c-2.3,5.5-7.4,9.5-13.6,10.3c-6.1,0.7-12.1-1.9-15.6-6.7c-1.7,1.3-3.6,2.1-5.8,2.3c-3.3,0.4-6.4-0.6-8.9-2.5
			c-2.4,3.6-6.3,6.1-10.8,6.6c-2.3,0.3-4.5,0-6.7-0.7c-1,7.1-6.6,12.9-14.1,13.8C586.6,94.8,585.9,94.8,585.3,94.8z M587.3,67.9
			c-1.1,0-2.3,0.1-3.2,0.2c-2.9,0.3-5.4,1.8-7.2,4c-1.8,2.3-2.6,5.1-2.2,7.9c0.3,2.8,1.8,5.4,4.1,7.2c2.3,1.8,5.1,2.6,8,2.2
			c5.9-0.7,10.2-6.1,9.5-11.9c0-0.1,0-0.2,0-0.3l0-0.3c-0.2-1.1,0.3-2.1,1.2-2.7c0.9-0.6,2.1-0.5,3,0.2c2.1,1.6,4.6,2.2,7.1,1.9
			c3.9-0.5,7.1-3.2,8.3-6.9c0.3-1,1.2-1.8,2.3-1.9c1.1-0.1,2.1,0.4,2.6,1.4c1.3,2.4,3.9,3.7,6.5,3.3c1.9-0.2,3.6-1.3,4.7-2.9
			c0.5-0.8,1.5-1.3,2.5-1.2c1,0.1,1.8,0.7,2.2,1.6c2,4.6,7,7.5,12,6.9c5.5-0.7,9.8-5.1,10.2-10.6c0.1-1.2,0.9-2.1,2.1-2.4
			c1.1-0.3,2.3,0.3,2.9,1.3c1.3,2.3,3.9,3.6,6.5,3.3c1.6-0.2,3-0.9,4.1-2.1c0.5-0.5,1.1-0.8,1.9-0.9c0.7,0,1.4,0.2,1.9,0.7
			c1.8,1.6,4.1,2.4,6.5,2.1c3.1-0.4,5.8-2.5,6.7-5.5c0.2-0.7,0.8-1.3,1.5-1.6c0.7-0.3,1.5-0.3,2.2,0.1c1.4,0.7,3,1,4.7,0.8
			c4.2-0.5,7.3-4.1,7.1-8.3c0-1.2,0.7-2.2,1.8-2.6c4.5-1.6,7.3-6,6.7-10.7c-0.7-5.5-5.8-9.5-11.4-8.8c-1.8,0.2-3.6,0.9-5,2.1
			c-1,0.7-2.3,0.7-3.2,0c-1.7-1.3-3.8-1.8-5.9-1.6c-2.6,0.3-4.8,1.8-6.1,4c-0.5,0.8-1.3,1.3-2.3,1.3c-0.9,0-1.8-0.5-2.3-1.3
			c-1.6-2.8-4.8-4.3-8-3.9c-4,0.5-7,3.7-7.1,7.7c0,1.1-0.8,2.1-1.8,2.4c-1.1,0.3-2.2,0-2.9-0.9c-1.4-1.8-3.7-2.8-6-2.5
			c-1.3,0.2-2.6,0.7-3.6,1.6c-0.6,0.5-1.3,0.7-2.1,0.7c-0.8-0.1-1.4-0.5-1.9-1.1c-1.9-2.8-5.2-4.2-8.6-3.8c-4,0.5-7.2,3.4-7.9,7.4
			c-0.2,0.9-0.8,1.7-1.7,2c-0.9,0.3-1.9,0.2-2.6-0.4c-2.1-1.6-4.7-2.4-7.3-2.1c-2.1,0.2-4,1.1-5.5,2.6c-1.1,1-2.7,0.9-3.7-0.1
			c-2.7-2.7-6.4-4-10.2-3.6c-6.7,0.8-11.6,6.9-10.8,13.6c0.4,2.9,0.9,5.5,3.9,7.8c0.6,0.4,0.9,1.1,1,1.8c0.1,0.8-0.3,1.6-0.9,2.2
			c-0.7,0.6-1.5,0.8-2.5,0.6C588.4,68,587.8,67.9,587.3,67.9z"/>
	</g>
	<g id="XMLID_8472_">
		<path id="XMLID_8473_" d="M684.1,516.4H518.4c-1.5,0-2.7-1.2-2.7-2.6V353.2c0-1.5,1.2-2.6,2.7-2.6h165.7c1.5,0,2.7,1.2,2.7,2.6
			v160.6C686.8,515.2,685.6,516.4,684.1,516.4z M521,511.1h160.4V355.8H521V511.1z"/>
	</g>
	<g id="XMLID_8468_">
		<path id="XMLID_8469_" d="M871.5,516.4H694.4c-1.5,0-2.7-1.2-2.7-2.6V246.6c0-1.5,1.2-2.6,2.7-2.6h177.1c1.5,0,2.7,1.2,2.7,2.6
			v267.1C874.1,515.2,873,516.4,871.5,516.4z M697,511.1h171.8V249.2H697V511.1z"/>
	</g>
	<g id="XMLID_8464_">
		<path id="XMLID_8465_" d="M861,241.2H703.5c-1.5,0-2.7-1.2-2.7-2.6v-18.4c0-1.5,1.2-2.6,2.7-2.6H861c1.5,0,2.7,1.2,2.7,2.6v18.4
			C863.7,240,862.5,241.2,861,241.2z M706.1,235.9h152.2v-13.1H706.1V235.9z"/>
	</g>
	<g id="XMLID_8460_">
		<path id="XMLID_8461_" d="M751,305.8h-33.3c-1.5,0-2.7-1.2-2.7-2.6v-33c0-1.5,1.2-2.6,2.7-2.6H751c1.5,0,2.7,1.2,2.7,2.6v33
			C753.6,304.7,752.4,305.8,751,305.8z M720.3,300.6h28v-27.7h-28V300.6z"/>
	</g>
	<g id="XMLID_8456_">
		<path id="XMLID_8457_" d="M799.9,305.8h-33.3c-1.5,0-2.7-1.2-2.7-2.6v-33c0-1.5,1.2-2.6,2.7-2.6h33.3c1.5,0,2.7,1.2,2.7,2.6v33
			C802.6,304.7,801.4,305.8,799.9,305.8z M769.3,300.6h28v-27.7h-28V300.6z"/>
	</g>
	<g id="XMLID_8452_">
		<path id="XMLID_8453_" d="M751,351.5h-33.3c-1.5,0-2.7-1.2-2.7-2.6v-33c0-1.5,1.2-2.6,2.7-2.6H751c1.5,0,2.7,1.2,2.7,2.6v33
			C753.6,350.3,752.4,351.5,751,351.5z M720.3,346.3h28v-27.7h-28V346.3z"/>
	</g>
	<g id="XMLID_8448_">
		<path id="XMLID_8449_" d="M799.9,351.5h-33.3c-1.5,0-2.7-1.2-2.7-2.6v-33c0-1.5,1.2-2.6,2.7-2.6h33.3c1.5,0,2.7,1.2,2.7,2.6v33
			C802.6,350.3,801.4,351.5,799.9,351.5z M769.3,346.3h28v-27.7h-28V346.3z"/>
	</g>
	<g id="XMLID_8444_">
		<path id="XMLID_8445_" d="M751.2,397.2h-33.3c-1.5,0-2.7-1.2-2.7-2.6v-33c0-1.5,1.2-2.6,2.7-2.6h33.3c1.5,0,2.7,1.2,2.7,2.6v33
			C753.9,396,752.7,397.2,751.2,397.2z M720.6,391.9h28v-27.7h-28V391.9z"/>
	</g>
	<g id="XMLID_8440_">
		<path id="XMLID_8441_" d="M799.9,397.2h-33.3c-1.5,0-2.7-1.2-2.7-2.6v-33c0-1.5,1.2-2.6,2.7-2.6h33.3c1.5,0,2.7,1.2,2.7,2.6v33
			C802.6,396,801.4,397.2,799.9,397.2z M769.3,391.9h28v-27.7h-28V391.9z"/>
	</g>
	<g id="XMLID_8436_">
		<path id="XMLID_8437_" d="M849,305.8h-33.3c-1.5,0-2.7-1.2-2.7-2.6v-33c0-1.5,1.2-2.6,2.7-2.6H849c1.5,0,2.7,1.2,2.7,2.6v33
			C851.7,304.7,850.5,305.8,849,305.8z M818.4,300.6h28v-27.7h-28V300.6z"/>
	</g>
	<g id="XMLID_8432_">
		<path id="XMLID_8433_" d="M849,351.5h-33.3c-1.5,0-2.7-1.2-2.7-2.6v-33c0-1.5,1.2-2.6,2.7-2.6H849c1.5,0,2.7,1.2,2.7,2.6v33
			C851.7,350.3,850.5,351.5,849,351.5z M818.4,346.3h28v-27.7h-28V346.3z"/>
	</g>
	<g id="XMLID_8428_">
		<path id="XMLID_8429_" d="M849,397.2h-33.3c-1.5,0-2.7-1.2-2.7-2.6v-33c0-1.5,1.2-2.6,2.7-2.6H849c1.5,0,2.7,1.2,2.7,2.6v33
			C851.7,396,850.5,397.2,849,397.2z M818.4,391.9h28v-27.7h-28V391.9z"/>
	</g>
	<g id="XMLID_8426_">
		<path id="XMLID_8427_" d="M608.2,348.7c-1.4,0-2.6-1.1-2.7-2.6l-3.7-188.6c0-0.7,0.3-1.4,0.8-1.9c0.5-0.5,1.2-0.8,1.9-0.8h3.1
			v-13.9h-3.5c-1.4,0-2.6-1.1-2.7-2.6l-0.5-27.4h-51.2l-0.5,27.4c0,1.4-1.2,2.6-2.7,2.6H543v13.9h3.1c0.7,0,1.4,0.3,1.9,0.8
			c0.5,0.5,0.8,1.2,0.8,1.9l-3.5,188.6c0,1.4-1.2,2.6-2.7,2.6c0,0,0,0-0.1,0c-1.5,0-2.6-1.2-2.6-2.7l3.5-185.9h-3.1
			c-1.5,0-2.7-1.2-2.7-2.6v-19.2c0-1.5,1.2-2.6,2.7-2.6h3.5l0.5-27.4c0-1.4,1.2-2.6,2.7-2.6h56.4c1.4,0,2.6,1.1,2.7,2.6l0.5,27.4
			h3.5c1.5,0,2.7,1.2,2.7,2.6v19.2c0,1.5-1.2,2.6-2.7,2.6h-3l3.7,185.9C610.9,347.5,609.7,348.7,608.2,348.7
			C608.3,348.7,608.2,348.7,608.2,348.7z"/>
	</g>
	<g id="XMLID_8424_">
		<path id="XMLID_8425_" d="M548.8,470.6c-1.5,0-2.7-1.2-2.7-2.6v-39.3c0-1.5,1.2-2.6,2.7-2.6s2.7,1.2,2.7,2.6V468
			C551.5,469.5,550.3,470.6,548.8,470.6z"/>
	</g>
	<g id="XMLID_8422_">
		<path id="XMLID_8423_" d="M582.3,470.6c-1.5,0-2.7-1.2-2.7-2.6v-39.3c0-1.5,1.2-2.6,2.7-2.6c1.5,0,2.7,1.2,2.7,2.6V468
			C585,469.5,583.8,470.6,582.3,470.6z"/>
	</g>
	<g id="XMLID_8420_">
		<path id="XMLID_8421_" d="M615.9,470.6c-1.5,0-2.7-1.2-2.7-2.6v-39.3c0-1.5,1.2-2.6,2.7-2.6c1.5,0,2.7,1.2,2.7,2.6V468
			C618.5,469.5,617.3,470.6,615.9,470.6z"/>
	</g>
	<g id="XMLID_8418_">
		<path id="XMLID_8419_" d="M649.4,470.6c-1.5,0-2.7-1.2-2.7-2.6v-39.3c0-1.5,1.2-2.6,2.7-2.6s2.7,1.2,2.7,2.6V468
			C652,469.5,650.9,470.6,649.4,470.6z"/>
	</g>
	<g id="XMLID_8416_">
		<path id="XMLID_8417_" d="M548.8,494.7c-1.5,0-2.7-1.2-2.7-2.6v-12.7c0-1.5,1.2-2.6,2.7-2.6s2.7,1.2,2.7,2.6V492
			C551.5,493.5,550.3,494.7,548.8,494.7z"/>
	</g>
	<g id="XMLID_8414_">
		<path id="XMLID_8415_" d="M582.3,494.7c-1.5,0-2.7-1.2-2.7-2.6v-12.7c0-1.5,1.2-2.6,2.7-2.6c1.5,0,2.7,1.2,2.7,2.6V492
			C585,493.5,583.8,494.7,582.3,494.7z"/>
	</g>
	<g id="XMLID_8412_">
		<path id="XMLID_8413_" d="M615.9,494.7c-1.5,0-2.7-1.2-2.7-2.6v-12.7c0-1.5,1.2-2.6,2.7-2.6c1.5,0,2.7,1.2,2.7,2.6V492
			C618.5,493.5,617.3,494.7,615.9,494.7z"/>
	</g>
	<g id="XMLID_8410_">
		<path id="XMLID_8411_" d="M649.4,494.7c-1.5,0-2.7-1.2-2.7-2.6v-12.7c0-1.5,1.2-2.6,2.7-2.6s2.7,1.2,2.7,2.6V492
			C652,493.5,650.9,494.7,649.4,494.7z"/>
	</g>
	<g id="XMLID_8406_">
		<path id="XMLID_8407_" d="M662.1,402.7H540.4c-1.5,0-2.7-1.2-2.7-2.6v-19.9c0-1.5,1.2-2.6,2.7-2.6h121.7c1.5,0,2.7,1.2,2.7,2.6
			v19.9C664.7,401.5,663.5,402.7,662.1,402.7z M543,397.4h116.4v-14.6H543V397.4z"/>
	</g>
	<g id="XMLID_8402_">
		<path id="XMLID_8403_" d="M340.3,325.1H225.1c-1.5,0-2.7-1.2-2.7-2.6v-16.1c0-1.5,1.2-2.6,2.7-2.6h115.2c1.5,0,2.7,1.2,2.7,2.6
			v16.1C342.9,323.9,341.7,325.1,340.3,325.1z M227.7,319.8h109.9V309H227.7V319.8z"/>
	</g>
	<g id="XMLID_8398_">
		<path id="XMLID_8399_" d="M340.3,359.6H225.1c-1.5,0-2.7-1.2-2.7-2.6v-16.1c0-1.5,1.2-2.6,2.7-2.6h115.2c1.5,0,2.7,1.2,2.7,2.6
			v16.1C342.9,358.4,341.7,359.6,340.3,359.6z M227.7,354.3h109.9v-10.8H227.7V354.3z"/>
	</g>
	<g id="XMLID_8393_">
		<path id="XMLID_8397_" d="M717.9,539H148.8c-1.5,0-2.7,1.2-2.7,2.6c0,1.5,1.2,2.6,2.7,2.6h569.2c1.5,0,2.7-1.2,2.7-2.6
			C720.6,540.2,719.4,539,717.9,539z"/>
		<path id="XMLID_8396_" d="M116,539H2.7c-1.5,0-2.7,1.2-2.7,2.6c0,1.5,1.2,2.6,2.7,2.6H116c1.5,0,2.7-1.2,2.7-2.6
			C118.7,540.2,117.5,539,116,539z"/>
		<path id="XMLID_8395_" d="M1097.3,539h-93.6c-1.5,0-2.7,1.2-2.7,2.6c0,1.5,1.2,2.6,2.7,2.6h93.6c1.5,0,2.7-1.2,2.7-2.6
			C1100,540.2,1098.8,539,1097.3,539z"/>
		<path id="XMLID_8394_" d="M977.2,539H832.3c-1.5,0-2.7,1.2-2.7,2.6c0,1.5,1.2,2.6,2.7,2.6h144.8c1.5,0,2.7-1.2,2.7-2.6
			C979.8,540.2,978.6,539,977.2,539z"/>
	</g>
	<g id="XMLID_8389_">
		<path id="XMLID_8390_" d="M766.4,516h-24.8c-1.5,0-2.7-1.2-2.7-2.6v-84.2c0-8,6.6-14.6,14.7-14.6h1c8,0,14.4,6.4,14.4,14.3v84.4
			C769.1,514.8,767.9,516,766.4,516z M744.3,510.7h19.5v-81.8c0-5-4.1-9-9.1-9h-1c-5.2,0-9.4,4.2-9.4,9.3V510.7z"/>
	</g>
	<g id="XMLID_8385_">
		<path id="XMLID_8386_" d="M822.8,515.6H798c-1.5,0-2.7-1.2-2.7-2.6v-83.8c0-8,6.6-14.6,14.7-14.6h1c8,0,14.4,6.4,14.4,14.3V513
			C825.5,514.4,824.3,515.6,822.8,515.6z M800.7,510.3h19.5v-81.4c0-5-4.1-9-9.1-9h-1c-5.2,0-9.4,4.2-9.4,9.3V510.3z"/>
	</g>
	<g id="XMLID_8381_">
		<path id="XMLID_8382_" d="M490.3,406.3H374.7c-1.5,0-2.7-1.2-2.7-2.6v-50.5c0-1.5,1.2-2.6,2.7-2.6h115.6c1.5,0,2.7,1.2,2.7,2.6
			v50.5C493,405.2,491.8,406.3,490.3,406.3z M377.3,401.1h110.3v-45.2H377.3V401.1z"/>
	</g>
</g>
</svg>
